mtllib materials.mtl
v -0.6930001 -0.3440006 0.3
v -0.613 -0.3440006 0.3
v -0.613 0.2359998 0.3
v -0.693 0.2359998 0.3
v -0.6930001 -0.3440006 0.3799999
v -0.693 0.2359998 0.3799999
v -0.613 0.2359998 0.3799999
v -0.613 -0.3440006 0.3799999
v -0.6830001 -0.3440001 -0.3799999
v -0.603 -0.3440001 -0.3799999
v -0.603 0.2159998 -0.3799999
v -0.683 0.2159998 -0.3799999
v -0.6830001 -0.3440001 -0.3
v -0.683 0.2159998 -0.3
v -0.603 0.2159998 -0.3
v -0.603 -0.3440001 -0.3
v 0.6069999 -0.3440001 0.37
v 0.6069999 -0.3440001 0.29
v 0.6070001 0.2260001 0.2899998
v 0.6070001 0.2260001 0.3699999
v 0.687 -0.3440001 0.37
v 0.6870001 0.2260001 0.3699999
v 0.6870001 0.2260001 0.2899998
v 0.687 -0.3440001 0.29
v 0.6069998 -0.3440001 -0.3699999
v 0.6869999 -0.3440001 -0.3699999
v 0.687 0.2260001 -0.3699999
v 0.6069999 0.2260001 -0.3699999
v 0.6069998 -0.3440001 -0.29
v 0.6069999 0.2260001 -0.29
v 0.687 0.2260001 -0.29
v 0.6869999 -0.3440001 -0.29
v 0.7170001 0.2060001 -0.4000001
v 0.7169999 0.2059999 0.4
v 0.7169999 0.2659998 0.4
v 0.7170001 0.266 -0.4000001
v -0.7129999 0.2060003 -0.4000001
v -0.7129999 0.2660003 -0.4000001
v -0.713 0.266 0.3999997
v -0.713 0.2060001 0.3999997
v 0.6390647 0.2459996 0.3564001
v 0.6390648 0.2459998 -0.3564
v -0.635065 0.2459998 0.3563999
v -0.6350649 0.2459998 -0.3564
vn -1.192093E-07 0 -1
vn 1.192093E-07 0 1
vn -1.748456E-07 -1 0
vn 1.748456E-07 1 0
vn -1 1.748456E-07 1.192093E-07
vn 1 -1.748456E-07 -1.192093E-07
vn -1.192093E-07 0 -1
vn 1.192093E-07 0 1
vn -1.748456E-07 -1 0
vn 1.748456E-07 1 0
vn -1 1.748456E-07 1.192093E-07
vn 1 -1.748456E-07 -1.192093E-07
vn -1 1.748456E-07 -9.322614E-17
vn 1 -1.748456E-07 9.322614E-17
vn -1.748456E-07 -1 1.748456E-07
vn 1.748456E-07 1 -1.748456E-07
vn 3.047774E-14 1.748456E-07 1
vn -3.047774E-14 -1.748456E-07 -1
vn -1.192093E-07 1.748456E-07 -1
vn 1.192093E-07 -1.748456E-07 1
vn -1.748456E-07 -1 -1.748456E-07
vn 1.748456E-07 1 1.748456E-07
vn -1 1.748456E-07 1.192093E-07
vn 1 -1.748456E-07 -1.192093E-07
vn 1 -1.748456E-07 1.748455E-07
vn -1 1.748456E-07 -1.748455E-07
vn -1.748455E-07 -1 -1.748456E-07
vn -0.2485718 0.9686135 1.984685E-07
vn 1.748456E-07 1.748456E-07 -1
vn -1.748456E-07 -1.748456E-07 1
vn 2.366414E-07 0.9089303 -0.4169481
vn 0.248574 0.9686129 1.326039E-07
vn 4.835561E-08 0.908931 0.4169466
vn 1.748455E-07 1 1.748456E-07
usemtl mat16
f 4//1 3//1 2//1 1//1
f 8//2 7//2 6//2 5//2
f 2//3 8//3 5//3 1//3
f 6//4 7//4 3//4 4//4
f 5//5 6//5 4//5 1//5
f 3//6 7//6 8//6 2//6
f 12//7 11//7 10//7 9//7
f 16//8 15//8 14//8 13//8
f 10//9 16//9 13//9 9//9
f 14//10 15//10 11//10 12//10
f 13//11 14//11 12//11 9//11
f 11//12 15//12 16//12 10//12
f 20//13 19//13 18//13 17//13
f 24//14 23//14 22//14 21//14
f 18//15 24//15 21//15 17//15
f 22//16 23//16 19//16 20//16
f 21//17 22//17 20//17 17//17
f 19//18 23//18 24//18 18//18
f 28//19 27//19 26//19 25//19
f 32//20 31//20 30//20 29//20
f 26//21 32//21 29//21 25//21
f 30//22 31//22 27//22 28//22
f 29//23 30//23 28//23 25//23
f 27//24 31//24 32//24 26//24
f 36//25 35//25 34//25 33//25
f 40//26 39//26 38//26 37//26
f 34//27 40//27 37//27 33//27
f 42//28 41//28 35//28 36//28
f 37//29 38//29 36//29 33//29
f 35//30 39//30 40//30 34//30
f 41//31 43//31 39//31 35//31
f 43//32 44//32 38//32 39//32
f 44//33 42//33 36//33 38//33
usemtl mat15
f 44//34 43//34 41//34 42//34
